<svg xmlns:xlink="http://www.w3.org/1999/xlink" version="1.1" class="highcharts-root" style="font-family: &quot;Lucida Grande&quot;, &quot;Lucida Sans Unicode&quot;, Arial, Helvetica, sans-serif; font-size: 12px;" xmlns="http://www.w3.org/2000/svg" width="600" height="410" viewBox="0 0 600 410"><desc>Created with Highcharts 10.1.0</desc><defs><clipPath id="highcharts-ygx89fu-810-"><rect x="0" y="0" width="520" height="295" fill="none"></rect></clipPath><clipPath id="highcharts-ygx89fu-1600-"><rect x="0" y="0" width="520" height="295" fill="none"></rect></clipPath><clipPath id="highcharts-ygx89fu-1601-"><rect x="25" y="40" width="520" height="295" fill="none"></rect></clipPath></defs><rect fill="#ffffff" class="highcharts-background" x="0" y="0" width="600" height="410" rx="0" ry="0"></rect><rect fill="none" class="highcharts-plot-background" x="25" y="40" width="520" height="295"></rect><g class="highcharts-grid highcharts-xaxis-grid" data-z-index="1"><path fill="none" stroke="#E7E7E7" stroke-width="1" stroke-dasharray="1,1" data-z-index="1" class="highcharts-grid-line" d="M 32.5 40 L 32.5 335" opacity="1"></path><path fill="none" stroke="#E7E7E7" stroke-width="1" stroke-dasharray="1,1" data-z-index="1" class="highcharts-grid-line" d="M 111.5 40 L 111.5 335" opacity="1"></path><path fill="none" stroke="#E7E7E7" stroke-width="1" stroke-dasharray="1,1" data-z-index="1" class="highcharts-grid-line" d="M 190.5 40 L 190.5 335" opacity="1"></path><path fill="none" stroke="#E7E7E7" stroke-width="1" stroke-dasharray="1,1" data-z-index="1" class="highcharts-grid-line" d="M 269.5 40 L 269.5 335" opacity="1"></path><path fill="none" stroke="#E7E7E7" stroke-width="1" stroke-dasharray="1,1" data-z-index="1" class="highcharts-grid-line" d="M 349.5 40 L 349.5 335" opacity="1"></path><path fill="none" stroke="#E7E7E7" stroke-width="1" stroke-dasharray="1,1" data-z-index="1" class="highcharts-grid-line" d="M 428.5 40 L 428.5 335" opacity="1"></path><path fill="none" stroke="#E7E7E7" stroke-width="1" stroke-dasharray="1,1" data-z-index="1" class="highcharts-grid-line" d="M 507.5 40 L 507.5 335" opacity="1"></path></g><g class="highcharts-grid highcharts-yaxis-grid" data-z-index="1"><path fill="none" stroke="#E7E7E7" stroke-width="1" stroke-dasharray="1,1" data-z-index="1" class="highcharts-grid-line" d="M 25 335.5 L 545 335.5" opacity="1"></path><path fill="none" stroke="#E7E7E7" stroke-width="1" stroke-dasharray="1,1" data-z-index="1" class="highcharts-grid-line" d="M 25 318.5 L 545 318.5" opacity="1"></path><path fill="none" stroke="#E7E7E7" stroke-width="1" stroke-dasharray="1,1" data-z-index="1" class="highcharts-grid-line" d="M 25 267.5 L 545 267.5" opacity="1"></path><path fill="none" stroke="#E7E7E7" stroke-width="1" stroke-dasharray="1,1" data-z-index="1" class="highcharts-grid-line" d="M 25 215.5 L 545 215.5" opacity="1"></path><path fill="none" stroke="#E7E7E7" stroke-width="1" stroke-dasharray="1,1" data-z-index="1" class="highcharts-grid-line" d="M 25 164.5 L 545 164.5" opacity="1"></path><path fill="none" stroke="#E7E7E7" stroke-width="1" stroke-dasharray="1,1" data-z-index="1" class="highcharts-grid-line" d="M 25 112.5 L 545 112.5" opacity="1"></path><path fill="none" stroke="#E7E7E7" stroke-width="1" stroke-dasharray="1,1" data-z-index="1" class="highcharts-grid-line" d="M 25 60.5 L 545 60.5" opacity="1"></path><path fill="none" stroke="#E7E7E7" stroke-width="1" stroke-dasharray="1,1" data-z-index="1" class="highcharts-grid-line" d="M 25 39.5 L 545 39.5" opacity="1"></path></g><rect fill="none" class="highcharts-plot-border" data-z-index="1" x="25" y="40" width="520" height="295"></rect><g class="highcharts-grid highcharts-yaxis-grid" data-z-index="1"></g><g class="highcharts-axis highcharts-xaxis" data-z-index="2"><path fill="none" class="highcharts-axis-line" stroke="#E6E6E6" stroke-width="1" data-z-index="7" d="M 25 335.5 L 545 335.5"></path></g><g class="highcharts-axis highcharts-yaxis" data-z-index="2"><path fill="none" class="highcharts-tick" stroke="#E7E7E7" stroke-width="0.5" d="M 545 335.25 L 555 335.25" opacity="1"></path><path fill="none" class="highcharts-tick" stroke="#E7E7E7" stroke-width="0.5" d="M 545 318.25 L 555 318.25" opacity="1"></path><path fill="none" class="highcharts-tick" stroke="#E7E7E7" stroke-width="0.5" d="M 545 267.25 L 555 267.25" opacity="1"></path><path fill="none" class="highcharts-tick" stroke="#E7E7E7" stroke-width="0.5" d="M 545 215.25 L 555 215.25" opacity="1"></path><path fill="none" class="highcharts-tick" stroke="#E7E7E7" stroke-width="0.5" d="M 545 164.25 L 555 164.25" opacity="1"></path><path fill="none" class="highcharts-tick" stroke="#E7E7E7" stroke-width="0.5" d="M 545 112.25 L 555 112.25" opacity="1"></path><path fill="none" class="highcharts-tick" stroke="#E7E7E7" stroke-width="0.5" d="M 545 60.25 L 555 60.25" opacity="1"></path><path fill="none" class="highcharts-tick" stroke="#E7E7E7" stroke-width="0.5" d="M 545 39.75 L 555 39.75" opacity="1"></path><path fill="none" class="highcharts-axis-line" stroke="#E6E6E6" stroke-width="1" data-z-index="7" d="M 545.5 40 L 545.5 335"></path></g><g class="highcharts-axis highcharts-yaxis" data-z-index="2"><path fill="none" class="highcharts-axis-line" stroke="#E6E6E6" stroke-width="1" data-z-index="7" d="M 24.5 40 L 24.5 335"></path></g><g class="highcharts-series-group" data-z-index="3"><g class="highcharts-series highcharts-series-0 highcharts-spline-series" data-z-index="4" opacity="1" transform="translate(25,40) scale(1 1)" clip-path="url(#highcharts-ygx89fu-1600-)"><path fill="none" d="M 0 274.774512195122 C 0 274.774512195122 0.403252032520326 274.7678739837395 0.67208672086721 274.761321138211 C 0.9149051490514861 274.7554024390239 1.036314363143624 274.74879674796694 1.2791327913279 274.743333333333 C 1.5479674796747802 274.7372845528454 1.68238482384822 274.73985372517706 1.9512195121951 274.732540650407 C 2.21138211382114 274.7254634812747 2.34146341463416 274.7167939490868 2.6016260162602 274.707357723577 C 2.87046070460708 274.6976069572168 3.00487804878052 274.6918862455021 3.2737127371274 274.684573170732 C 3.5338753387533997 274.6774960015997 3.6639566395663996 274.6768079434891 3.9241192411924 274.671382113821 C 4.19295392953928 274.66577542316395 4.32737127371272 274.6605894308946 4.5962059620596 274.656991869919 C 4.86504065040648 274.65339430894346 4.99945799457992 274.653394308943 5.2682926829268 274.653394308943 C 5.52845528455284 274.653394308943 5.6585365853658605 274.655792682927 5.9186991869919 274.655792682927 C 6.18753387533878 274.655792682927 6.32195121951222 274.651766560043 6.5907859078591 274.648597560976 C 6.8509485094851 274.6455307876854 6.981029810298099 274.6427982140483 7.2411924119241 274.640203252033 C 7.51002710027098 274.6375217912839 7.64444444444442 274.6368455284554 7.9132791327913 274.635406504065 C 8.182113821138179 274.6339674796746 8.31653116531162 274.635406504065 8.5853658536585 274.633008130081 C 8.836856368563659 274.63060975609704 8.96260162601624 274.6261567750671 9.2140921409214 274.622215447154 C 9.48292682926828 274.61800230352276 9.617344173441719 274.61652225776385 9.8861788617886 274.61262195122 C 10.14634146341476 274.60884746101624 10.27642276422784 274.60821837931553 10.536585365854 274.60302845528497 C 10.8054200542008 274.5976655337867 10.9398373983742 274.5940404504861 11.208672086721 274.586239837398 C 11.468834688346998 274.57869085699014 11.59891598916 274.57550613088125 11.859078590786 274.564654471545 C 12.127913279132802 274.5534410902308 12.262330623306202 274.5413902439022 12.531165311653 274.531077235772 C 12.799999999999802 274.5207642276418 12.934417344173202 274.5194274290279 13.20325203252 274.513089430894 C 13.463414634146 274.5069558843128 13.593495934959 274.5057960149275 13.853658536585 274.499898373984 C 14.1224932249322 274.4938041450091 14.256910569105802 274.49017906170906 14.525745257453 274.483109756098 C 14.785907859079 274.4762684926034 14.915989159892002 274.4726709316279 15.176151761518 274.46512195122 C 15.4449864498648 274.45732133813186 15.5794037940382 274.4545691056914 15.848238482385 274.444735772358 C 16.1170731707318 274.4349024390246 16.2514905149052 274.4265406504067 16.520325203252 274.415955284553 C 16.7631436314364 274.4063943089431 16.8845528455286 274.40210975609745 17.127371273713 274.394369918699 C 17.3962059620598 274.38580081300785 17.530623306233203 274.3846899240301 17.79945799458 274.375182926829 C 18.059620596206 274.36598260695695 18.189701897019 274.3579814740767 18.449864498645 274.347601626016 C 18.7186991869918 274.33687578301993 18.8531165311652 274.330706850593 19.121951219512 274.322418699187 C 19.382113821138 274.31439790750375 19.512195121951 274.31461415433864 19.772357723577 274.306829268293 C 20.0411924119238 274.29878488604584 20.175609756097195 274.29219918699164 20.444444444444 274.282845528455 C 20.7132791327912 274.2734918699184 20.847696476964803 274.268592896175 21.116531165312 274.26006097561 C 21.376693766938 274.251804278289 21.506775067751 274.2500743036121 21.766937669377 274.24087398374 C 22.0357723577238 274.2313669865389 22.1701897018972 274.22401852592304 22.439024390244 274.213292682927 C 22.69918699187 274.20291283486625 22.829268292683 274.1977818872456 23.089430894309 274.188109756098 C 23.358265582655797 274.17811522057883 23.4926829268292 274.17515853658523 23.761517615176 274.16412601626 C 24.0303523035228 274.1530934959348 24.164769647696197 274.14706097561026 24.433604336043 274.132947154472 C 24.6764227642274 274.12019918699224 24.7978319783196 274.10926422764186 25.040650406504 274.096971544715 C 25.3094850948508 274.0833617886175 25.4439024390242 274.0789168999071 25.712737127371 274.068191056911 C 25.972899728997 274.0578112088503 26.102981029809996 274.0531717313073 26.363143631436 274.044207317073 C 26.6319783197832 274.0349440890309 26.766395663956803 274.0306663334672 27.035230352304 274.02262195122 C 27.29539295393 274.0148370651744 27.425474254743 274.0128908436622 27.685636856369 274.004634146341 C 27.9544715447158 273.99610222577576 28.088888888889198 273.99048373983726 28.357723577236 273.980650406504 C 28.626558265582798 273.97081707317085 28.7609756097562 273.9661933226711 29.029810298103 273.955467479675 C 29.289972899729 273.9450876316143 29.420054200542 273.9394455551116 29.680216802168 273.927886178862 C 29.9490514905148 273.91594149007085 30.083468834688198 273.91011462081815 30.352303523035 273.896707317073 C 30.612466124661 273.883732506997 30.742547425474005 273.8746697987472 31.0027100271 273.861930894309 C 31.271544715446804 273.84876735972284 31.405962059620197 273.8444227642274 31.674796747967 273.831951219512 C 31.9436314363142 273.8194796747966 32.078048780487805 273.81343495934993 32.346883468835 273.799573170732 C 32.589701897019 273.78705284552876 32.711111111111 273.77828861788583 32.953929539295 273.765995934959 C 33.2227642276422 273.7523861788614 33.357181571815794 273.7479806077572 33.626016260163 273.73481707317103 C 33.886178861789 273.7220781687328 34.016260162601995 273.7132710249232 34.276422764228 273.701239837398 C 34.5452574525748 273.68880761028873 34.6796747967482 273.68584699453504 34.948509485095 273.673658536585 C 35.208672086721 273.6618632546978 35.338753387534 273.65354758096765 35.59891598916 273.641280487805 C 35.8677506775068 273.62860449153686 36.0021680216802 273.62305284552843 36.271002710027 273.61130081300803 C 36.5398373983738 273.5995487804877 36.674254742547205 273.5939774756762 36.943089430894 273.582520325203 C 37.203252032520005 273.571432760229 37.333333333332995 273.567913834466 37.593495934959 273.55493902439 C 37.86233062330619 273.54153172064485 37.996747967479806 273.52850972944105 38.265582655827 273.51656504065 C 38.525745257453 273.50500566440064 38.65582655826599 273.5049073703856 38.915989159892 273.496178861789 C 39.18482384823879 273.48715940290595 39.3192411924122 273.4827479674796 39.588075880759 273.472195121951 C 39.8569105691058 273.4616422764224 39.9913279132792 273.4548149051487 40.260162601626 273.443414634146 C 40.5116531165312 273.4327498644983 40.6373983739838 273.42653807588044 40.888888888889 273.417032520325 C 41.1577235772358 273.40687140921403 41.2921409214092 273.40497381047606 41.560975609756 273.39424796748 C 41.82113821138201 273.3838681194193 41.951219512195 273.37700719712126 42.211382113821 273.364268292683 C 42.4802168021678 273.3511047580968 42.6146341463412 273.34387425030013 42.883468834688 273.329491869919 C 43.143631436314 273.31557343729213 43.273712737127 273.308378315341 43.533875338753 273.293516260163 C 43.8027100271002 273.27815880314574 43.9371273712738 273.2702520325206 44.205962059621 273.253943089431 C 44.4747967479678 273.2376341463414 44.6092140921412 273.2258663867782 44.878048780488 273.21197154471497 C 45.138211382114 273.19852492336344 45.268292682927 273.19762061841897 45.528455284553 273.185589430894 C 45.7972899728998 273.17315720378497 45.9317073170732 273.164464081034 46.20054200542 273.15081300813 C 46.460704607046 273.13760229241643 46.590785907859 273.131409769426 46.850948509485 273.11843495935 C 47.11978319783181 273.10502765560483 47.254200542005194 273.0985284552844 47.523035230352 273.084857723577 C 47.7918699186992 273.0711869918696 47.926287262872805 273.06444715447145 48.19512195122 273.050081300813 C 48.437940379404 273.0371056910571 48.559349593496 273.02788617886205 48.80216802168 273.016504065041 C 49.071002710026804 273.0039024390248 49.20542005420019 272.9996289484211 49.474254742547 272.99012195122 C 49.734417344172996 272.98092163134794 49.864498644986 272.980823337332 50.124661246612 272.969735772358 C 50.393495934959205 272.9582786218848 50.527913279132804 272.94789877382425 50.79674796748 272.93376016260197 C 51.056910569106 272.92007763561264 51.186991869919 272.91362954818055 51.447154471545 272.900182926829 C 51.7159891598918 272.88628808476574 51.8504065040652 272.88123577235757 52.119241192412 272.865406504065 C 52.3880758807588 272.84957723577236 52.522493224932205 272.83761288817817 52.791327913279 272.821036585366 C 53.051490514905005 272.80499500199943 53.181571815717994 272.79848793815825 53.441734417344 272.783861788618 C 53.710569105690794 272.7687481007598 53.8449864498642 272.7627757563643 54.113821138211 272.74668699187 C 54.373983739837 272.7311172197787 54.50406504064999 272.71957750233196 54.764227642276 272.704715447154 C 55.033062330623196 272.6893579901367 55.1674796747968 272.68408943089423 55.436314363144 272.671138211382 C 55.7051490514908 272.6581869918698 55.8395663956642 272.6530650406499 56.108401084011 272.639959349593 C 56.35121951219539 272.6281219512191 56.472628726287596 272.6194796747967 56.715447154472 272.608780487805 C 56.9842818428188 272.59693495934994 57.1186991869922 272.59066686658707 57.387533875339 272.583597560976 C 57.64769647696501 272.57675629748144 57.777777777778 272.5784862721582 58.037940379404 272.574004065041 C 58.3067750677508 272.56937245101983 58.441192411924206 272.56081300813 58.710027100271 272.56081300813 C 58.970189701897006 272.56081300813 59.100271002709995 272.564410569106 59.360433604336 272.564410569106 C 59.629268292682795 272.564410569106 59.7636856368562 272.5548170731708 60.032520325203 272.544024390244 C 60.3013550135498 272.5332317073172 60.4357723577232 272.514044715448 60.70460704607 272.510447154472 C 60.9647696476964 272.506849593496 61.0948509485096 272.510447154472 61.355013550136 272.506849593496 C 61.6238482384828 272.50325203252 61.7582655826562 272.4986322137811 62.027100271003 272.48766260162597 C 62.287262872629 272.4770468479275 62.417344173442 272.46303012128493 62.677506775068 272.452886178862 C 62.9463414634148 272.442404105025 63.0807588075882 272.4478495934964 63.349593495935 272.436097560976 C 63.6184281842818 272.4243455284556 63.75284552845519 272.4145406504065 64.021680216802 272.39412601626 C 64.2644986449864 272.3756869918696 64.3859078590786 272.35489837398364 64.628726287263 272.338963414634 C 64.8975609756098 272.32132113821126 65.0319783197832 272.3284656137542 65.30081300813 272.310182926829 C 65.560975609756 272.2924900039982 65.691056910569 272.27237904838074 65.951219512195 272.249024390244 C 66.2200542005418 272.2248912435027 66.3544715447152 272.2136464081032 66.623306233062 272.191463414634 C 66.88346883468799 272.1699960015992 67.01355013550099 272.16065807010546 67.273712737127 272.139898373984 C 67.5425474254742 272.1184466879919 67.6769647696478 272.1060813008134 67.945799457995 272.08593495934997 C 68.2146341463418 272.0657886178866 68.3490514905152 272.0572055844334 68.617886178862 272.03916666666703 C 68.878048780488 272.02170964947373 69.008130081301 272.01252898840454 69.268292682927 271.997195121951 C 69.5371273712738 271.9813501266157 69.6715447154472 271.9773082766891 69.940379403794 271.961219512195 C 70.20054200541999 271.9456497401039 70.330623306233 271.93267493002816 70.590785907859 271.918048780488 C 70.8596205962058 271.9029350926298 70.9940379403792 271.90030081300796 71.262872628726 271.886869918699 C 71.5317073170728 271.87343902439 71.6661246612462 271.86526856368545 71.934959349593 271.850894308943 C 72.1864498644982 271.83744742547424 72.3121951219508 271.82960474254764 72.563685636856 271.817317073171 C 72.8325203252032 271.80418197832006 72.9669376693768 271.8012322404373 73.235772357724 271.787337398374 C 73.49593495935001 271.7738907770225 73.62601626016301 271.76524090363836 73.886178861789 271.748963414634 C 74.1550135501358 271.73214334266277 74.2894308943092 271.72092602958816 74.558265582656 271.704593495935 C 74.818428184282 271.6887878182061 74.948509485095 271.68465946954564 75.208672086721 271.668617886179 C 75.4775067750678 271.65204158336684 75.6119241192412 271.642235772358 75.880758807588 271.623048780488 C 76.1495934959348 271.603861788618 76.2840108401082 271.59267199786734 76.552845528455 271.572682926829 C 76.81300813008099 271.5533386645337 76.94308943089399 271.54547514327544 77.20325203252 271.524715447154 C 77.4720867208672 271.5032637611618 77.6065040650408 271.4895812341733 77.875338753388 271.467154471545 C 78.13550135501399 271.44545115287247 78.26558265582699 271.4306677329064 78.525745257453 271.414390243902 C 78.7945799457998 271.3975701719308 78.9289972899732 271.39664227642305 79.19783197832 271.384410569106 C 79.4666666666668 271.372178861789 79.6010840108402 271.3660853658537 79.869918699187 271.353231707317 C 80.1127371273714 271.3416219512193 80.2341463414636 271.331902439024 80.476964769648 271.32325203252 C 80.7457994579948 271.3136747967477 80.8802168021682 271.312781753965 81.149051490515 271.307662601626 C 81.409214092141 271.3027085832334 81.539295392954 271.3046744635478 81.79945799458 271.298069105691 C 82.0682926829268 271.291243569239 82.2027100271002 271.28139844062406 82.471544715447 271.274085365854 C 82.73170731707299 271.2670081967217 82.86178861788599 271.26586798613897 83.121951219512 271.262093495935 C 83.3907859078588 271.25819318939097 83.5252032520322 271.2611341463418 83.794037940379 271.254898373984 C 84.0628726287262 271.2486626016262 84.1972899728998 271.2389590163932 84.466124661247 271.230914634146 C 84.726287262873 271.2231297481004 84.856368563686 271.22311008929745 85.116531165312 271.215325203252 C 85.3853658536588 271.20728082100504 85.5197831978322 271.20231107557015 85.788617886179 271.19134146341503 C 86.04878048780499 271.18072570971657 86.178861788618 271.1712698254034 86.439024390244 271.161361788618 C 86.7078590785908 271.1511234839398 86.84227642276421 271.140975609756 87.111111111111 271.140975609756 C 87.3799457994578 271.140975609756 87.5143631436312 271.180548780488 87.783197831978 271.180548780488 C 88.0260162601624 271.180548780488 88.1474254742546 271.1733373983738 88.390243902439 271.168556910569 C 88.6590785907858 271.16326422764223 88.7934959349592 271.16560415833703 89.062330623306 271.155365853659 C 89.32249322493199 271.14545781687383 89.452574525745 271.1342326402778 89.712737127371 271.118191056911 C 89.9815718157178 271.1016147540986 90.1159891598912 271.0923475942954 90.384823848238 271.073821138211 C 90.6449864498644 271.05589230974215 90.77506775067761 271.04993569238917 91.035230352304 271.027052845528 C 91.3040650406508 271.0034072371048 91.4384823848242 270.9865203252032 91.707317073171 270.9575 C 91.9761517615178 270.9284796747968 92.1105691056912 270.90998467279735 92.379403794038 270.881951219512 C 92.63956639566399 270.8548220711714 92.769647696477 270.84294815407173 93.029810298103 270.819593495935 C 93.29864498644979 270.7954603491937 93.4330623306232 270.78785239237635 93.70189701897 270.763231707317 C 93.96205962059601 270.73940523790475 94.09214092140901 270.72631247500993 94.352303523035 270.698475609756 C 94.6211382113818 270.6697108489936 94.7555555555552 270.6565040650402 95.024390243902 270.621727642276 C 95.2932249322492 270.58695121951183 95.4276422764228 270.5674390243902 95.69647696477 270.524593495935 C 95.939295392954 270.48589430894333 96.060704607046 270.45747560975644 96.30352303523 270.417865853659 C 96.5723577235772 270.3740121951225 96.7067750677508 270.3568881780627 96.975609756098 270.31593495935 C 97.235772357724 270.2763028122087 97.365853658537 270.2508446621348 97.626016260163 270.216402439024 C 97.8948509485098 270.1808121418096 98.0292682926832 270.17229988004834 98.29810298103 270.140853658537 C 98.55826558265599 270.11042183126796 98.68834688346901 270.0911955217912 98.948509485095 270.061707317073 C 99.2173441734418 270.03123617219757 99.3517615176152 270.02189430894316 99.620596205962 269.990955284553 C 99.8894308943092 269.96001626016283 100.02384823848278 269.93845841663347 100.29268292683 269.907012195122 C 100.55284552845399 269.876580367853 100.682926829266 269.8648047447689 100.94308943089 269.836260162602 C 101.211924119238 269.8067640943625 101.346341463412 269.7909190990274 101.61517615176 269.761910569106 C 101.875338753388 269.7338377982142 102.005420054202 269.72446054911387 102.26558265583 269.693556910569 C 102.53441734417399 269.6616231507399 102.66883468834598 269.64175203252034 102.93766937669 269.604817073171 C 103.206504065038 269.5678821138211 103.340921409212 269.5480395663958 103.60975609756 269.508882113821 C 103.86124661246399 269.47225094850944 103.98699186991598 269.4447895663952 104.23848238482 269.415345528455 C 104.507317073168 269.3838708672084 104.64173441734201 269.38047474343625 104.91056910569 269.356585365854 C 105.17073170731801 269.33346661335503 105.300813008132 269.32448254031755 105.56097560976 269.297825203252 C 105.82981029810401 269.27027928828477 105.964227642276 269.26056783953015 106.23306233062 269.221077235772 C 106.493224932248 269.18286052245696 106.623306233062 269.14837898174056 106.88346883469 269.103556910569 C 107.15230352303801 269.0572407703586 107.28672086721201 269.03832113821153 107.55555555556 268.993231707317 C 107.824390243904 268.94814227642314 107.958807588076 268.9224757430361 108.22764227642 268.878109756098 C 108.487804878048 268.8351749300281 108.617886178862 268.8117809542853 108.87804878049 268.774979674797 C 109.146883468838 268.73695168599255 109.28130081301201 268.7285770358527 109.55013550136 268.691036585366 C 109.810298102984 268.6547071171535 109.94037940379602 268.62899340263897 110.20054200542 268.590304878049 C 110.469376693768 268.55032673597213 110.603794037942 268.5226707317074 110.87262872629 268.494369918699 C 111.14146341463399 268.466069105691 111.27588075880598 268.461402439024 111.54471544715 268.448800813008 C 111.787533875338 268.43741869918676 111.908943089432 268.4471585365859 112.15176151762 268.434410569106 C 112.42059620596402 268.4202967479679 112.55501355013601 268.4096797947481 112.82384823848 268.381646341463 C 113.084010840108 268.3545171931221 113.214092140922 268.3285872317746 113.47425474255 268.296504065041 C 113.743089430894 268.263351459417 113.877506775066 268.24220251899226 114.14634146341 268.218556910569 C 114.406504065038 268.19567406370743 114.536585365852 268.19315773690505 114.79674796748 268.180182926829 C 115.06558265582801 268.1667756230838 115.200000000002 268.158597560975 115.46883468835 268.152601626016 C 115.737669376694 268.146605691057 115.872086720866 268.152601626016 116.14092140921 268.146605691057 C 116.40108401083799 268.140609756098 116.53116531165202 268.1296794615487 116.79132791328 268.107032520325 C 117.06016260162801 268.08363068106064 117.194579945802 268.0629299613485 117.46341463415 268.031483739837 C 117.723577235774 268.0010519125681 117.853658536586 267.9778152072502 118.11382113821 267.95233739837397 C 118.382655826558 267.9260103292015 118.517073170732 267.92283739837364 118.78590785908 267.901971544715 C 119.05474254742799 267.8811056910564 119.189159891602 267.87421951219477 119.45799457995 267.848008130081 C 119.70081300813399 267.82433333333313 119.82222222222599 267.7970609756097 120.06504065041 267.777256097561 C 120.333875338754 267.755329268293 120.46829268292599 267.75464847394403 120.73712737127 267.743678861789 C 120.99728997289802 267.73306310809045 121.12737127371199 267.7348520591766 121.38753387534 267.723292682927 C 121.65636856368799 267.71134799413585 121.790785907862 267.70149500199926 122.05962059621 267.684918699187 C 122.319783197834 267.66887711582046 122.44986449864601 267.65661002265784 122.71002710027 267.64174796748 C 122.97886178861799 267.62639051046267 123.11327913279199 267.6249593495934 123.38211382114 267.609369918699 C 123.65094850948799 267.5937804878046 123.785365853662 267.58622757563637 124.05420054201 267.563800813008 C 124.314363143634 267.5420974943356 124.44444444444598 267.5242866186855 124.70460704607 267.499044715447 C 124.973441734418 267.47296141543353 125.10785907859199 267.45693949087024 125.37669376694 267.435487804878 C 125.63685636856398 267.41472810875666 125.76693766937599 267.41168099426926 126.027100271 267.393516260163 C 126.295934959348 267.3747460349196 126.430352303522 267.371930894309 126.69918699187 267.343150406504 C 126.968021680218 267.31436991869896 127.10243902439201 267.296743902439 127.37127371274 267.249613821138 C 127.614092140924 267.20704471544695 127.735501355016 267.1667073170725 127.9783197832 267.118902439024 C 128.247154471548 267.06597560975575 128.381571815722 267.053607690258 128.65040650407 266.997784552846 C 128.910569105694 266.9437621618028 129.040650406506 266.91010629081643 129.30081300813 266.844288617886 C 129.569647696478 266.7762770225237 129.70406504065198 266.72951659336314 129.972899729 266.663211382114 C 130.233062330624 266.5990450486479 130.363143631436 266.5655267892845 130.62330623306 266.518109756098 C 130.892140921408 266.4691121551381 131.02655826558197 266.46150813008137 131.29539295393 266.422174796748 C 131.564227642278 266.3828414634146 131.698644986452 266.35727715580464 131.9674796748 266.321443089431 C 132.227642276424 266.2867649606827 132.357723577236 266.2822237771555 132.61788617886 266.245894308943 C 132.886720867208 266.20835385845623 133.021138211382 266.1816218179398 133.28997289973 266.136768292683 C 133.550135501354 266.0933616553382 133.680216802166 266.0717173130744 133.94037940379 266.025243902439 C 134.20921409213798 265.9772213781152 134.343631436312 265.9583292682932 134.61246612466 265.900528455285 C 134.88130081300798 265.8427276422768 135.015718157182 265.7942325203251 135.28455284553 265.736239837398 C 135.536043360434 265.68198861788596 135.66178861788597 265.66744647696447 135.91327913279 265.619918699187 C 136.182113821138 265.5691131436313 136.316531165312 265.54427948820495 136.58536585366 265.490406504065 C 136.845528455284 265.4382713581237 136.975609756096 265.3945305211249 137.23577235772 265.354898373984 C 137.504607046068 265.31394515527126 137.639024390242 265.32355831000945 137.90785907859 265.288943089431 C 138.168021680218 265.25544448887103 138.298102981032 265.2343899107027 138.55826558266 265.184613821138 C 138.82710027100399 265.1331785285887 138.96151761517598 265.0946747967472 139.23035230352 265.035914634146 C 139.499186991868 264.977154471544 139.63360433604197 264.9549242969475 139.90243902439 264.89081300813 C 140.162601626018 264.8287698254031 140.29268292683201 264.7851666000276 140.55284552846 264.720528455285 C 140.821680216804 264.6537357057188 140.95609756097602 264.6280534452883 141.22493224932 264.562235772358 C 141.485094850948 264.4985412501663 141.615176151762 264.4604424896717 141.87533875339 264.39674796748 C 142.14417344173398 264.3309302945497 142.278590785906 264.29985365853634 142.54742547425 264.238455284553 C 142.81626016259798 264.17705691056875 142.950677506772 264.148479674797 143.21951219512 264.089756097561 C 143.46233062330398 264.03671544715456 143.58373983739597 264.0091260162598 143.82655826558 263.959044715447 C 144.09539295392798 263.90359756097547 144.229810298102 263.87590763694584 144.49864498645 263.82593495935 C 144.75880758807398 263.77757430361265 144.88888888888602 263.7561462081835 145.14905149051 263.713211382114 C 145.417886178858 263.6688453951751 145.552303523032 263.6508300679725 145.82113821138 263.607682926829 C 146.081300813008 263.56592762894803 146.211382113822 263.54624916700044 146.47154471545 263.500955284553 C 146.74037940379398 263.4541516060248 146.874796747966 263.42420731707267 147.14363143631 263.37743902439 C 147.41246612465798 263.3306707317067 147.546883468832 263.3085545781685 147.81571815718 263.267113821138 C 148.07588075880798 263.2270098627213 148.205962059622 263.21179394908705 148.46612466125 263.173577235772 C 148.73495934959402 263.1340866320138 148.86937669376601 263.112579901372 149.13821138211 263.072845528455 C 149.398373983738 263.0343929095024 149.528455284552 263.0189214314278 149.78861788618 262.978109756098 C 150.05745257452799 262.93593769159065 150.191869918702 262.9018414634153 150.46070460705 262.865386178862 C 150.72953929539398 262.8289308943093 150.863956639566 262.8273373983736 151.13279132791 262.795833333333 C 151.375609756094 262.76737804877996 151.49701897018602 262.7494065040648 151.73983739837 262.715487804878 C 152.00867208671804 262.6779349593496 152.14308943089202 262.66176422764244 152.41192411924 262.617154471545 C 152.672086720868 262.5739837398377 152.802168021682 262.53873550579834 153.06233062331 262.496036585366 C 153.33116531165402 262.45191436758677 153.465582655826 262.43325423164003 153.73441734417 262.400101626016 C 153.994579945798 262.36801845928244 154.124661246612 262.3683330001337 154.38482384824 262.332947154472 C 154.653658536588 262.2963817806217 154.788075880762 262.2703495934966 155.05691056911 262.22022357723597 C 155.325745257454 262.1700975609761 155.460162601626 262.1281456750632 155.72899728997 262.082317073171 C 155.989159891598 262.03796681327447 156.119241192412 262.02803911768615 156.37940379404 261.994776422764 C 156.648238482388 261.9604049713446 156.782655826562 261.9466280821006 157.05149051491 261.913231707317 C 157.311653116534 261.8809126349462 157.441734417346 261.859976009596 157.70189701897 261.830487804878 C 157.970731707318 261.80001666000237 158.105149051492 261.79163414634144 158.37398373984 261.763333333333 C 158.642818428184 261.735032520325 158.77723577235602 261.7298130081292 159.0460704607 261.688983739837 C 159.288888888888 261.65210569105597 159.410298102982 261.6243821138214 159.65311653117 261.56906504065 C 159.92195121951403 261.5078211382118 160.05636856368602 261.452185592429 160.32520325203 261.397581300813 C 160.585365853658 261.3447384379578 160.715447154472 261.34975143276125 160.9756097561 261.300447154472 C 161.244444444444 261.2494994002408 161.378861788616 261.20691843262625 161.64769647696 261.146951219512 C 161.907859078588 261.0889184326262 162.03794037940202 261.06112088497986 162.29810298103 261.005447154472 C 162.566937669378 260.94791763294745 162.70135501355202 260.91023170731756 162.9701897019 260.863943089431 C 163.239024390244 260.8176544715452 163.37344173441602 260.80764420898316 163.64227642276 260.774004065041 C 163.902439024388 260.7414490870319 164.032520325202 260.7262921498071 164.29268292683 260.698455284553 C 164.561517615178 260.6696905237906 164.695934959352 260.66492129814765 164.9647696477 260.6325 C 165.224932249324 260.60112455018003 165.355013550136 260.5785955617749 165.61517615176 260.538963414634 C 165.88401084010803 260.49801019592127 166.01842818428202 260.4811626016261 166.28726287263 260.431036585366 C 166.556097560978 260.3809105691058 166.690514905152 260.3307126016259 166.9593495935 260.288333333333 C 167.210840108404 260.24868821138193 167.336585365856 260.24359566395646 167.58807588076 260.225975609756 C 167.85691056910798 260.20714037940365 167.99132791328196 260.225975609756 168.26016260163 260.197195121951 C 168.520325203254 260.16841463414596 168.65040650406598 260.13977175796276 168.91056910569 260.076077235772 C 169.179403794038 260.01025956284076 169.313821138212 259.9543459949353 169.58265582656 259.873414634146 C 169.842818428184 259.7950939624153 169.97289972899597 259.7541446754632 170.23306233062 259.677947154472 C 170.501897018968 259.59920971611353 170.636314363142 259.5544308943086 170.90514905149 259.486077235772 C 171.173983739838 259.4177235772354 171.30840108401202 259.39297707583694 171.57723577236 259.336178861789 C 171.837398373984 259.2812128481949 171.967479674796 259.2580940956951 172.22764227642 259.206666666667 C 172.496476964768 259.1535249900039 172.630894308942 259.1113214714115 172.89972899729 259.074756097561 C 173.159891598918 259.03937025189913 173.289972899732 259.052974143676 173.55013550136 259.026788617886 C 173.81897018970398 258.99973024123676 173.953387533876 258.9869756097553 174.22222222222 258.941646341463 C 174.49105691056803 258.89631707317005 174.62547425474202 258.8749959349597 174.89430894309 258.800142276423 C 175.13712737127403 258.7325325203257 175.25853658536602 258.67768292682905 175.50135501355 258.58548780487797 C 175.770189701898 258.48341463414584 175.904607046072 258.374430894308 176.17344173442 258.314471544715 C 176.43360433604397 258.254512195122 176.563685636856 258.2806977209114 176.82384823848 258.254512195122 C 177.092682926828 258.2274538184726 177.22710027100197 258.2245089297618 177.49593495935 258.181361788618 C 177.75609756097398 258.1396064907374 177.88617886178602 258.09887345061946 178.14634146341 258.042256097561 C 178.41517615175803 257.9837514993999 178.54959349593202 257.95135772357725 178.81842818428 257.89355691056903 C 179.087262872628 257.8357560975609 179.22168021680199 257.8202885512462 179.49051490515 257.75325203252 C 179.750677506774 257.68837798214054 179.880758807586 257.6347880847658 180.14092140921 257.563780487805 C 180.409756097558 257.4904059709446 180.54417344173197 257.4744469545509 180.81300813008 257.392296747967 C 181.073170731708 257.3127965480469 181.20325203252202 257.24057010529214 181.46341463415 257.15965447154497 C 181.732249322494 257.0760416500077 181.86666666666602 257.0265447154469 182.13550135501 256.980975609756 C 182.404336043358 256.9354065040645 182.538753387532 256.9723861788614 182.80758807588 256.931808943089 C 183.05040650406403 256.89515853658503 183.171815718156 256.8548333333329 183.41463414634 256.787906504065 C 183.68346883468803 256.71380894308936 183.817886178862 256.6496972544322 184.08672086721 256.57924796748 C 184.346883468834 256.5110712381722 184.47696476964603 256.4934766093565 184.73712737127 256.44134146341503 C 185.005962059618 256.3874684792749 185.140379403792 256.3534744768755 185.40921409214 256.314227642276 C 185.669376693768 256.276246834599 185.799457994582 256.2935662401714 186.05962059621 256.248272357724 C 186.328455284554 256.2014686791958 186.46287262872602 256.1484999999991 186.73170731707 256.083983739837 C 187.000542005418 256.0194674796739 187.134959349592 255.98541450086663 187.40379403794 255.925691056911 C 187.663956639568 255.86789417566345 187.794037940382 255.8498670531792 188.05420054201 255.790182926829 C 188.32303523035398 255.7285093296016 188.457452574526 255.71054118352535 188.72628726287 255.622296747967 C 188.98644986449798 255.5368989071025 189.116531165312 255.53465780354645 189.37669376694 255.356077235772 C 189.64552845528402 255.17154398240845 189.779945799456 254.93252439024218 190.0487804878 254.71451219512198 C 190.317615176148 254.49649999999858 190.452032520322 254.40665040650472 190.72086720867 254.26601626016298 C 190.963685636854 254.13899186991952 191.085094850946 254.11775609756128 191.32791327913 254.045365853659 C 191.596747967478 253.96521951219535 191.731165311652 253.9526863921098 192 253.88467479674802 C 192.260162601628 253.81885712381703 192.390243902442 253.7695331867261 192.65040650407 253.710792682927 C 192.91924119241398 253.65009416233573 193.053658536586 253.63897514327525 193.32249322493 253.586077235772 C 193.582655826558 253.53488571238083 193.712737127372 253.4989297614291 193.972899729 253.450569105691 C 194.24173441734402 253.40059642809587 194.376151761516 253.38437398373947 194.64498644986 253.340243902439 C 194.913821138208 253.29611382113788 195.04823848238198 253.29134852725565 195.31707317073 253.229918699187 C 195.57723577235797 253.17047047847524 195.707317073172 253.10669732107237 195.9674796748 253.038048780488 C 196.236314363144 252.96711195521877 196.370731707316 252.94019119019035 196.63956639566 252.880955284553 C 196.899728997288 252.82363021458036 197.02981029810203 252.80774590163898 197.28997289973 252.746646341463 C 197.55880758807803 252.68351012928136 197.693224932252 252.6535894308952 197.9620596206 252.57036585365898 C 198.230894308944 252.48714227642398 198.36531165311598 252.42222628726236 198.63414634146 252.330528455285 C 198.885636856368 252.24474661246555 199.01138211382198 252.20433401084145 199.26287262873 252.126666666667 C 199.531707317074 252.04364295393063 199.666124661246 251.99925009995937 199.93495934959 251.928800813008 C 200.195121951218 251.86062408369898 200.325203252032 251.8353035452483 200.58536585366 251.780101626016 C 200.854200542008 251.72305964280952 200.988617886182 251.69548227375793 201.25745257453 251.648191056911 C 201.517615176154 251.6024253631887 201.647696476966 251.5835529121679 201.90785907859 251.547459349593 C 202.176693766938 251.51016266826514 202.31111111111198 251.514841463414 202.57994579946 251.464715447154 C 202.84878048780803 251.414589430894 202.983197831982 251.3663034786091 203.25203252033 251.296829268293 C 203.512195121954 251.2295961615363 203.642276422766 251.2102322404371 203.90243902439 251.122947154472 C 204.171273712738 251.0327525656403 204.305691056912 250.96892043182828 204.57452574526 250.853130081301 C 204.834688346884 250.7410749033727 204.964769647696 250.6736452085823 205.22493224932 250.553333333333 C 205.493766937668 250.42901106224062 205.628184281842 250.3559471544714 205.89701897019 250.241544715447 C 206.16585365853803 250.12714227642257 206.300271002712 250.06650813008113 206.56910569106 249.981321138211 C 206.811924119244 249.90437804878033 206.93333333333598 249.88470731707324 207.17615176152 249.836219512195 C 207.44498644986396 249.78253658536605 207.57940379403598 249.7826925229903 207.84823848238 249.725894308943 C 208.108401084008 249.67092829534786 208.23848238482196 249.64456584033033 208.49864498645 249.556808943089 C 208.76747967479795 249.46612681593996 208.90189701897197 249.3773044115688 209.17073170732 249.279796747967 C 209.43089430894398 249.1854344928696 209.56097560975599 249.15120851659242 209.82113821138 249.077134146341 C 210.089972899728 249.0005906304136 210.224390243902 248.9677682926826 210.49322493225 248.90325203252002 C 210.76205962059802 248.8387357723574 210.896476964772 248.8130574436889 211.16531165312 248.754552845528 C 211.425474254744 248.69793549246972 211.55555555555603 248.66593096094908 211.81571815718 248.615447154472 C 212.084552845528 248.56328055444507 212.218970189702 248.55667519658817 212.48780487805 248.497926829268 C 212.74796747967403 248.44107357057175 212.878048780486 248.38376815940256 213.13821138211 248.326443089431 C 213.407046070458 248.26720718379298 213.541463414632 248.2564105691058 213.81029810298 248.206524390244 C 214.079132791328 248.1566382113822 214.213550135502 248.15514227642308 214.48238482385 248.077012195122 C 214.725203252034 248.0064430894311 214.846612466126 247.93698780487762 215.08943089431 247.834776422764 C 215.358265582658 247.72161382113762 215.492682926832 247.66460589097738 215.76151761518 247.538577235772 C 216.021680216804 247.41661402105856 216.15176151761602 247.3261442089818 216.41192411924 247.214796747967 C 216.680758807588 247.099737704917 216.815176151762 247.07445648407378 217.08401084011 246.97256097561 C 217.34417344173397 246.87395241903334 217.474254742546 246.81143742502954 217.73441734417 246.713536585366 C 218.003252032518 246.6123723843791 218.13766937669197 246.5737113821142 218.40650406504 246.474898373984 C 218.675338753388 246.37608536585378 218.80975609756197 246.31917313074788 219.07859078591 246.219471544715 C 219.338753387534 246.12298613887785 219.468834688346 246.063459282953 219.72899728997 245.984430894309 C 219.99783197831803 245.9027682260426 220.132249322492 245.916714180994 220.40108401084 245.817743902439 C 220.661246612468 245.72196621351443 220.79132791328203 245.59805677729034 221.05149051491 245.49756097560999 C 221.32032520325401 245.3937153138755 221.45474254742598 245.35006097560898 221.72357723577 245.306890243902 C 221.99241192411802 245.263719512195 222.12682926829203 245.28841869918688 222.39566395664 245.263719512195 C 222.63848238482402 245.24141056910565 222.759891598916 245.23535365853635 223.0027100271 245.18936991869901 C 223.271544715448 245.13845934959312 223.40596205962197 245.06828741836588 223.67479674797 245.021483739837 C 223.934959349594 244.97618985739027 224.065040650406 244.9754035052643 224.32520325203 244.95912601626 C 224.59403794037803 244.94230594428868 224.728455284552 244.95360975609728 224.9972899729 244.938739837398 C 225.257452574524 244.92434959349563 225.38753387533603 244.91805877648906 225.64769647696 244.885975609756 C 225.91653116530802 244.85282300413144 226.050948509482 244.82481707317058 226.31978319783 244.77565040650398 C 226.58861788617796 244.7264837398374 226.72303523035197 244.70498487271811 226.9918699187 244.640142276423 C 227.25203252032398 244.5773913767833 227.382113821136 244.50243236038926 227.64227642276 244.456666666667 C 227.911111111108 244.40937544982006 228.045528455282 244.43577722244433 228.31436314363 244.4075 C 228.574525745258 244.38013494602154 228.704607046072 244.38479408236796 228.9647696477 244.31756097561 C 229.23360433604398 244.24808676529474 229.368021680216 244.17126016260082 229.63685636856 244.065731707317 C 229.905691056908 243.96020325203165 230.040108401082 243.8972299458 230.30894308943 243.789918699187 C 230.560433604334 243.689530758808 230.686178861786 243.63991639566325 230.93766937669 243.54648373983702 C 231.20650406503802 243.44660745257363 231.34092140921203 243.3926968545909 231.60975609756 243.306646341463 C 231.86991869918802 243.2233716513389 232.000000000002 243.18851659336298 232.26016260163 243.123170731707 C 232.528997289974 243.05564667466373 232.66341463414602 243.0261506064231 232.93224932249 242.97447154471502 C 233.192411924118 242.9244595495127 233.32249322493197 242.90102625616433 233.58265582656 242.868943089431 C 233.851490514908 242.8357904838067 233.985907859082 242.83464634146338 234.25474254743 242.811382113821 C 234.523577235774 242.78811788617898 234.65799457994598 242.78504324936716 234.92682926829 242.75262195122 C 235.186991869918 242.72124650139958 235.31707317073202 242.70685625749718 235.57723577236 242.65189024390202 C 235.846070460704 242.59509202985475 235.98048780487602 242.52903451952517 236.24932249322 242.47321138211402 C 236.509485094848 242.41918899106994 236.639566395662 242.40440557110472 236.89972899729 242.377276422764 C 237.168563685638 242.3492429694787 237.302981029812 242.34130081300896 237.57181571816 242.335304878049 C 237.84065040650398 242.32930894308902 237.975067750676 242.335304878049 238.24390243902 242.32930894308902 C 238.486720867208 242.32331300812905 238.608130081302 242.27078455284575 238.85094850949 242.239369918699 C 239.119783197834 242.20458943089454 239.254200542006 242.192829668132 239.52303523035 242.163821138211 C 239.78319783197804 242.1357483673192 239.913279132792 242.1483300013335 240.17344173442 242.096666666667 C 240.442276422764 242.04328122084593 240.57669376693602 242.00065700386438 240.84552845528 241.90119918699202 C 241.10569105690803 241.80494968679116 241.235772357722 241.71709449553566 241.49593495935 241.60739837398398 C 241.764769647698 241.49404571504763 241.899186991872 241.4397520325207 242.16802168022 241.343577235772 C 242.43685636856398 241.2474024390247 242.571273712736 241.22330074636727 242.84010840108 241.12652439024401 C 243.10027100270798 241.03286985205847 243.23035230352198 240.9637495002001 243.49051490515 240.8675 C 243.75934959349803 240.7680421831269 243.89376693767198 240.7308634546187 244.16260162602 240.637256097561 C 244.422764227644 240.54666833266754 244.552845528456 240.48604058376597 244.81300813008 240.407012195122 C 245.08184281842802 240.32534952685558 245.21626016260197 240.2995650406508 245.48509485095 240.235528455285 C 245.75392953929799 240.1714918699192 245.88834688347197 240.145552845529 246.15718157182 240.086829268293 C 246.400000000004 240.0337886178866 246.521409214096 240.00710975609798 246.76422764228 239.95611788617902 C 247.03306233062398 239.8996626016264 247.167479674796 239.818211382114 247.43631436314 239.818211382114 C 247.696476964768 239.818211382114 247.82655826558204 239.83020325203302 248.08672086721 239.83020325203302 C 248.35555555555803 239.83020325203302 248.48997289973198 239.73137058510008 248.75880758808 239.673109756098 C 249.018970189704 239.61672830867732 249.149051490516 239.61035885645754 249.40921409214 239.543597560976 C 249.678048780488 239.47461088897757 249.81246612466197 239.40593089430863 250.08130081301 239.333739837398 C 250.350135501358 239.26154878048743 250.48455284553202 239.22481434093066 250.75338753388 239.182642276423 C 251.013550135504 239.1418306010935 251.14363143631599 239.14515293882454 251.40379403794 239.126280487805 C 251.672628726288 239.10677895508454 251.807046070462 239.11717846194864 252.07588075881 239.086707317073 C 252.336043360434 239.05721911235503 252.46612466124597 239.03559442889454 252.72628726287 238.976382113821 C 252.99512195121798 238.91519605491095 253.129539295392 238.86413821138223 253.39837398374 238.78571138211402 C 253.667208672088 238.7072845528458 253.801626016262 238.67044308943156 254.07046070461 238.58424796748 C 254.313279132794 238.50639430894353 254.43468834688602 238.4391016260163 254.67750677507 238.375589430894 C 254.946341463414 238.30527235772354 255.08075880758602 238.30111008929708 255.34959349593 238.249674796748 C 255.609756097558 238.19989870718345 255.739837398372 238.16856257497037 256 238.12256097560999 C 256.268834688348 238.0750259896044 256.403252032522 238.0477670931626 256.67208672087 238.015833333333 C 256.932249322494 237.9849296947886 257.062330623306 237.965467479675 257.32249322493 237.965467479675 C 257.591327913278 237.965467479675 257.725745257452 237.97745934959298 257.9945799458 237.978658536585 C 258.26341463414803 237.979857723577 258.397831978322 237.979857723577 258.66666666667 237.979857723577 C 258.926829268294 237.979857723577 259.056910569106 237.94250599760076 259.31707317073 237.9175 C 259.585907859078 237.89166046914556 259.720325203252 237.88223997067848 259.9891598916 237.852743902439 C 260.249322493224 237.82419932027207 260.37940379403597 237.8094355591098 260.63956639566 237.772398373984 C 260.908401084008 237.73412661602023 261.042818428182 237.731146341463 261.31165311653 237.664471544715 C 261.580487804878 237.59779674796704 261.714905149052 237.485792682927 261.9837398374 237.43902439024401 C 262.23523035230403 237.39225609756102 262.360975609756 237.39225609756102 262.61246612466 237.39225609756102 C 262.881300813008 237.39225609756102 263.015718157182 237.42970218579276 263.28455284553 237.44262195122 C 263.544715447154 237.4551249500204 263.674796747966 237.44262195122 263.93495934959 237.45581300813 C 264.203794037938 237.46900406504002 264.338211382112 237.51817073170702 264.60704607046 237.51817073170702 C 264.867208672088 237.51817073170702 264.997289972902 237.51817073170702 265.25745257453 237.512174796748 C 265.526287262874 237.506178861789 265.660704607046 237.4927479674791 265.92953929539 237.453414634146 C 266.198373983738 237.4140813008123 266.332791327912 237.3764504198316 266.60162601626 237.315508130081 C 266.861788617888 237.25653172064477 266.99186991870204 237.18599593496 267.25203252033 237.153617886179 C 267.520867208674 237.121239837398 267.65528455284596 237.121239837398 267.92411924119 237.121239837398 C 268.184281842818 237.121239837398 268.314363143632 237.1253681860586 268.57452574526 237.14282520325202 C 268.843360433604 237.1608641210182 268.977777777776 237.18551626016298 269.24661246612 237.209979674797 C 269.515447154468 237.23444308943138 269.649864498642 237.24649186991894 269.91869918699 237.265142276423 C 270.16151761517403 237.28198780487818 270.28292682926605 237.29392276422698 270.52574525745 237.298719512195 C 270.794579945798 237.303516260163 270.928997289972 237.303516260163 271.19783197832 237.303516260163 C 271.457994579944 237.303516260163 271.588075880756 237.06247967479698 271.84823848238 236.996524390244 C 272.117073170728 236.930569105691 272.251490514902 236.930569105691 272.52032520325 236.930569105691 C 272.780487804878 236.930569105691 272.910569105692 236.935365853659 273.17073170732 236.935365853659 C 273.439566395664 236.935365853659 273.573983739836 236.915459349593 273.84281842818 236.890995934959 C 274.11165311652803 236.86653252032463 274.24607046070196 236.83986338797817 274.51490514905 236.813048780488 C 274.775067750678 236.78709916033617 274.905149051492 236.80131247501075 275.16531165312 236.759085365854 C 275.43414634146404 236.71545068639278 275.56856368563604 236.64178521924518 275.83739837398 236.598394308943 C 276.097560975608 236.55640310542398 276.227642276422 236.55042682926899 276.48780487805 236.545630081301 C 276.756639566398 236.540833333333 276.89105691057205 236.5437113821136 277.15989159892 236.540833333333 C 277.428726287264 236.53795528455245 277.563143631436 236.540833333333 277.83197831978 236.531239837398 C 278.07479674796394 236.521646341463 278.19620596205596 236.4912235772355 278.43902439024 236.478475609756 C 278.707859078588 236.4643617886179 278.842276422762 236.478475609756 279.11111111111 236.464085365854 C 279.371273712738 236.449695121952 279.501355013552 236.350162601626 279.76151761518 236.350162601626 C 280.03035230352396 236.350162601626 280.164769647696 236.485670731707 280.43360433604 236.485670731707 C 280.693766937668 236.485670731707 280.82384823848196 236.381341463415 281.08401084011 236.381341463415 C 281.352845528458 236.381341463415 281.48726287263196 236.411321138211 281.75609756098 236.411321138211 C 282.024932249324 236.411321138211 282.15934959349596 236.406524390244 282.42818428184 236.406524390244 C 282.688346883468 236.406524390244 282.818428184282 236.428109756098 283.07859078591 236.428109756098 C 283.34742547425805 236.428109756098 283.481842818432 236.393333333333 283.75067750678 236.393333333333 C 284.010840108404 236.393333333333 284.14092140921605 236.40292682926798 284.40108401084 236.40292682926798 C 284.66991869918803 236.40292682926798 284.804336043362 236.330975609756 285.07317073171 236.330975609756 C 285.342005420054 236.330975609756 285.47642276422596 236.360955284553 285.74525745257 236.360955284553 C 285.98807588075795 236.360955284553 286.10948509485195 236.360955284553 286.35230352304 236.34656504065 C 286.621138211384 236.332174796747 286.75555555555604 236.3301184859383 287.0243902439 236.249430894309 C 287.284552845528 236.17134612821465 287.414634146342 236.06687924830123 287.67479674797 235.949634146341 C 287.943631436314 235.82848087431762 288.07804878048603 235.75874323603819 288.34688346883 235.65343495935 C 288.607046070458 235.55152372384342 288.737127371272 235.5261835265899 288.9972899729 235.431585365854 C 289.266124661248 235.33383393309393 289.400542005422 235.2557845528464 289.66937669377 235.17256097561 C 289.938211382114 235.08933739837482 290.07262872628604 235.07494715447137 290.34146341463 235.015467479675 C 290.601626016258 234.95790650406457 290.731707317072 234.9219505531117 290.9918699187 234.879959349593 C 291.260704607048 234.83656843929052 291.395121951222 234.84125902972175 291.66395663957 234.80201219512202 C 291.92411924119403 234.76403138744533 292.054200542006 234.75294382247023 292.31436314363 234.68689024390198 C 292.583197831978 234.61863487938066 292.717615176152 234.54370731707277 292.9864498645 234.466239837398 C 293.255284552848 234.3887723577232 293.38970189702195 234.3962073170731 293.65853658537 234.299552845528 C 293.91002710027396 234.20913414634148 294.035772357726 234.0817884823843 294.28726287263 233.998556910569 C 294.556097560978 233.90958523035187 294.690514905152 233.9243803145409 294.9593495935 233.869044715447 C 295.219512195124 233.81549413567933 295.349593495936 233.78484606157545 295.60975609756 233.726341463415 C 295.878590785908 233.66588671198184 296.013008130082 233.6386828601894 296.28184281843 233.571646341463 C 296.542005420054 233.5067722910834 296.672086720866 233.44728475276486 296.93224932249 233.39656504065 C 297.201084010838 233.34415467146403 297.335501355012 233.3529146341458 297.60433604336 233.31382113821098 C 297.873170731708 233.27472764227616 298.007588075882 233.2713030787692 298.27642276423 233.201097560976 C 298.53658536585397 233.133156737306 298.666666666666 233.06682793549209 298.92682926829 232.968455284553 C 299.195663956638 232.86680354524808 299.33008130081197 232.81268286019022 299.59891598916 232.701036585366 C 299.85907859078395 232.5929918032794 299.989159891596 232.51241036918475 300.24932249322 232.41922764227598 C 300.518157181568 232.32293882446913 300.65257452574195 232.2937926829266 300.92140921409 232.227357723577 C 301.190243902438 232.1609227642274 301.324661246612 232.1540934959346 301.59349593496 232.087052845528 C 301.83631436314397 232.02649999999983 301.957723577236 231.9782601626016 302.20054200542 231.90837398374 C 302.469376693768 231.831 302.60379403794195 231.78715780354534 302.87262872629 231.718902439024 C 303.13279132791394 231.65284886045572 303.26287262872603 231.64101426096155 303.52303523035 231.572601626016 C 303.791869918698 231.50190856990474 303.92628726287205 231.4557261095566 304.19512195122 231.371138211382 C 304.45528455284403 231.289278955085 304.585365853656 231.27773923763712 304.84552845528 231.156483739837 C 305.114363143628 231.0311863921087 305.24878048780204 230.872756097561 305.51761517615 230.754756097561 C 305.78644986449797 230.63675609756098 305.920867208672 230.65155917632964 306.18970189702 230.566483739837 C 306.449864498644 230.48415267226446 306.57994579945597 230.4346124883369 306.84010840108 230.336239837398 C 307.10894308942795 230.2345880980933 307.243360433602 230.165393042783 307.51219512195 230.06642276422798 C 307.772357723578 229.97064507530342 307.902439024392 229.94703485272626 308.16260162602 229.84936991869898 C 308.43143631436396 229.74844948687266 308.56585365853596 229.7042682926824 308.83468834688 229.569959349594 C 309.103523035228 229.4356504065036 309.237940379402 229.32425609756143 309.50677506775 229.17782520325198 C 309.749593495934 229.04556504065064 309.871002710026 228.99001219512152 310.11382113821 228.87323170731702 C 310.38265582655805 228.74393902438993 310.51707317073203 228.68477062508427 310.78590785908 228.562642276423 C 311.046070460704 228.44445355191345 311.17615176151605 228.37600159935937 311.43631436314 228.27243902439 C 311.70514905148804 228.16542436358702 311.839566395662 228.1322442356391 312.10840108401 228.036199186992 C 312.368563685638 227.9432523657203 312.498644986452 227.90517326402824 312.75880758808 227.799959349593 C 313.027642276424 227.6912383046786 313.16205962059604 227.65461788617768 313.43089430894 227.501361788618 C 313.699728997288 227.34810569105608 313.83414634146203 227.22674403571907 314.10298102981 227.03367886178899 C 314.363143631438 226.84684159669467 314.493224932252 226.7377352392396 314.75338753388 226.551605691057 C 315.022222222224 226.35927182460517 315.156639566396 226.2525520458466 315.42547425474 226.087520325203 C 315.685636856368 225.9278122084482 315.815718157182 225.8728068772502 316.07588075881 225.73975609756098 C 316.34471544715404 225.6022702918846 316.479132791326 225.5315772357719 316.74796747967 225.41117886178898 C 317.016802168018 225.2907804878043 317.151219512192 225.2123658536585 317.42005420054 225.13776422764198 C 317.662872628724 225.07038211382095 317.78428184281603 225.13726016260117 318.027100271 225.056219512195 C 318.295934959348 224.96649593495914 318.430352303522 224.84127015860435 318.69918699187 224.71085365853702 C 318.95934959349404 224.58464414234436 319.089430894306 224.5245864987336 319.34959349593 224.41465447154502 C 319.618428184278 224.30105804344876 319.752845528452 224.27221071571333 320.0216802168 224.152032520325 C 320.28184281842806 224.03573104091652 320.41192411924203 223.92890510462598 320.67208672087 223.823455284553 C 320.940921409214 223.71449047047957 321.07533875338606 223.6961016260154 321.34417344173 223.61599593495902 C 321.613008130078 223.53589024390143 321.74742547425205 223.52043449286904 322.0162601626 223.422926829268 C 322.276422764228 223.32856457416986 322.406504065042 223.23776056244225 322.66666666667 223.136321138211 C 322.935501355014 223.03150039984064 323.069918699186 223.02087285085832 323.33875338753 222.907276422764 C 323.598915989158 222.79734439557393 323.72899728997197 222.70913534586182 323.9891598916 222.5775 C 324.257994579948 222.4414768092766 324.39241192412203 222.33790243902533 324.66124661247 222.238130081301 C 324.930081300814 222.13835772357814 325.064498644986 222.18793211381995 325.33333333333 222.07863821138199 C 325.584823848238 221.9763955284539 325.71056910569195 221.91076002710238 325.9620596206 221.709288617886 C 326.23089430894396 221.4939226287284 326.365311653116 221.036544715447 326.63414634146 221.036544715447 C 326.894308943088 221.036544715447 327.024390243902 221.181646341463 327.28455284553 221.181646341463 C 327.553387533878 221.181646341463 327.68780487805196 221.05377369052448 327.9566395664 220.966991869919 C 328.21680216802395 220.88300946288248 328.346883468836 220.86301646008238 328.60704607046 220.754735772358 C 328.875880758808 220.6428457283748 329.010298102982 220.5700609756094 329.27913279133 220.41656504065 C 329.54796747967805 220.2630691056906 329.68238482385203 220.11377229108422 329.9512195122 219.987256097561 C 330.211382113824 219.8648210715722 330.341463414636 219.85906104224938 330.60162601626 219.79418699187 C 330.87046070460804 219.72715047314384 331.004878048782 219.79418699187 331.27371273713 219.657479674797 C 331.533875338754 219.520772357724 331.663956639566 219.3445705051298 331.92411924119 219.119044715447 C 332.192953929538 218.8860013994386 332.327371273712 218.7254715447154 332.59620596206 218.51105691056898 C 332.865040650408 218.2966422764226 332.99945799458203 218.2901829268293 333.26829268293 218.046971544715 C 333.511111111114 217.82729674796772 333.632520325206 217.6317926829286 333.87533875339 217.353841463415 C 334.144173441734 217.04610975609938 334.278590785906 216.582764227642 334.54742547425 216.582764227642 C 334.807588075878 216.582764227642 334.937669376692 216.605548780488 335.19783197832 216.605548780488 C 335.46666666666795 216.605548780488 335.601084010842 216.26760609089825 335.86991869919 216.089898373984 C 336.13008130081397 215.91792316406907 336.26016260162606 215.88137744901996 336.52032520325 215.731341463415 C 336.78915989159805 215.57630427828798 336.923577235772 215.67521951219481 337.19241192412 215.327215447154 C 337.461246612468 214.9792113821132 337.595663956642 213.991321138211 337.86449864499 213.991321138211 C 338.124661246614 213.991321138211 338.25474254742596 214.126829268293 338.51490514905 214.126829268293 C 338.783739837398 214.126829268293 338.918157181572 213.8385093296035 339.18699186992 213.602784552846 C 339.447154471544 213.3746638011479 339.577235772356 213.1403701852578 339.83739837398 212.967215447154 C 340.106233062328 212.7882888844446 340.240650406502 212.84178048780478 340.50948509485 212.722581300813 C 340.778319783198 212.6033821138212 340.912737127372 212.474804878049 341.18157181572 212.371219512195 C 341.42439024390404 212.27765853658542 341.54579945799605 212.230914634145 341.78861788618 212.229715447154 C 342.057452574528 212.22851626016302 342.191869918702 212.229715447154 342.46070460705 212.22851626016302 C 342.720867208674 212.22731707317203 342.850948509486 212.03511295481778 343.11111111111 211.914329268293 C 343.37994579945797 211.78951945888258 343.514363143632 211.779564240971 343.78319783198 211.61453252032499 C 344.043360433604 211.45482440357264 344.173441734416 211.30276356124108 344.43360433604 211.102479674797 C 344.702439024388 210.8955196588023 344.836856368562 210.75543495935003 345.10569105691 210.596422764228 C 345.374525745258 210.43741056910602 345.50894308943197 210.47513188058218 345.77777777778 210.307418699187 C 346.03794037940395 210.14511562041943 346.168021680216 209.99714380914162 346.42818428184 209.771382113821 C 346.69701897018797 209.53809502865366 346.83143631436195 209.33604184992592 347.10027100271 209.159796747967 C 347.36043360433797 208.98923697187712 347.490514905152 209.03199486872 347.75067750678 208.904369918699 C 348.01951219512404 208.77249080367966 348.153929539296 208.67628455284438 348.42276422764 208.511036585366 C 348.69159891598804 208.34578861788518 348.826016260162 208.2200243902445 349.09485094851 208.078130081301 C 349.33766937669395 207.94996747967528 349.45907859078596 207.966333333333 349.70189701897 207.835894308943 C 349.970731707318 207.6914796747962 350.10514905149205 207.62720825003436 350.37398373984 207.390995934959 C 350.63414634146403 207.16240337198553 350.764227642276 206.90200286551885 351.0243902439 206.67388211382098 C 351.293224932248 206.43815733706364 351.42764227642203 206.43590443822575 351.69647696477 206.23138211382098 C 351.956639566394 206.0334572837542 352.086720867206 205.91522924163485 352.34688346883 205.667764227642 C 352.615718157178 205.41205037984642 352.750135501352 204.97343495935002 353.0189701897 204.97343495935002 C 353.28780487804795 204.97343495935002 353.422222222222 205.21157383713148 353.69105691057 205.30201219512202 C 353.951219512194 205.3895331867247 354.08130081300607 205.418333333333 354.34146341463 205.418333333333 C 354.61029810297805 205.418333333333 354.744715447152 205.35237804878 355.0135501355 205.35237804878 C 355.273712737128 205.35237804878 355.403794037942 205.372764227642 355.66395663957 205.372764227642 C 355.93279132791406 205.372764227642 356.06720867208594 205.372764227642 356.33604336043 205.274430894309 C 356.604878048778 205.17609756097602 356.73929539295204 204.98621029810408 357.0081300813 204.798353658537 C 357.25962059620406 204.62261680216926 357.385365853656 204.54442981029783 357.63685636856 204.365447154472 C 357.90569105690804 204.17412086720825 358.040108401082 204.15998513927715 358.30894308943 203.872581300813 C 358.56910569105804 203.59444855391115 358.699186991872 202.977987804878 358.9593495935 202.951605691057 C 359.228184281844 202.925223577236 359.36260162601604 202.951605691057 359.63143631436 202.925223577236 C 359.891598915988 202.898841463415 360.021680216802 202.8608213381316 360.28184281843 202.76693089430898 C 360.550677506778 202.66991076902596 360.685094850952 202.5942479674813 360.9539295393 202.447947154472 C 361.222764227644 202.3016463414649 361.357181571816 202.18656370784865 361.62601626016 202.035426829268 C 361.886178861788 201.88916533386467 362.01626016260195 201.83231207517085 362.27642276423 201.704451219512 C 362.545257452574 201.57232833533368 362.67967479674604 201.49467606290744 362.94850948509 201.38546747967501 C 363.208672086718 201.27978175396427 363.33875338753194 201.2250123284016 363.59891598916 201.167215447154 C 363.86775067750796 201.1074920031984 364.002168021682 201.12620325203304 364.27100271003 201.09166666666698 C 364.53983739837406 201.0571300813014 364.67425474254594 201.03838617886115 364.94308943089 200.99453252032498 C 365.185907859078 200.95492276422675 365.307317073172 200.9351382113825 365.55013550136 200.883008130081 C 365.818970189704 200.8252926829273 365.953387533876 200.7949996001593 366.22222222222 200.71991869918702 C 366.48238482384807 200.64725976276088 366.612466124662 200.63113954418304 366.87262872629 200.513658536585 C 367.14146341463396 200.39226149540264 367.275880758806 200.27995468479153 367.54471544715 200.122723577236 C 367.80487804877805 199.97056444088912 367.934959349592 199.89281387445024 368.19512195122 199.740182926829 C 368.463956639568 199.58246428095424 368.598373983742 199.5065813008142 368.86720867209 199.34684959349602 C 369.136043360434 199.1871178861802 369.270460704606 199.1063123417286 369.53929539295 198.941524390244 C 369.799457994578 198.782052179127 369.929539295392 198.65533153405335 370.18970189702 198.536199186992 C 370.458536585368 198.41309576169573 370.592953929542 198.442949620153 370.86178861789 198.33593495935 C 371.121951219514 198.2323723843806 371.252032520326 198.1737105157928 371.51219512195 198.009756097561 C 371.781029810298 197.8403365320528 371.91544715447196 197.6629512195122 372.18428184282 197.5025 C 372.453116531168 197.3420487804878 372.587533875342 197.3062967479677 372.85636856369 197.20749999999998 C 373.09918699187403 197.11826422764253 373.220596205966 197.15102032520383 373.46341463415 197.03241869918702 C 373.732249322494 196.90110975609824 373.866666666666 196.66546747967496 374.13550135501 196.58272357723598 C 374.395663956638 196.499979674797 374.525745257452 196.58272357723598 374.78590785908 196.499979674797 C 375.054742547428 196.41723577235803 375.189159891602 196.23690557110564 375.45799457995 196.041890243902 C 375.718157181574 195.85316573370724 375.848238482386 195.71331300812903 376.10840108401 195.540630081301 C 376.377235772358 195.36219105690986 376.511653116532 195.30486991870023 376.78048780488 195.16408536585402 C 377.04932249322803 195.0233008130078 377.183739837402 195.02367826202638 377.45257452575 194.83670731707 C 377.712737127374 194.65576769292076 377.842818428186 194.44459282953272 378.10298102981 194.24430894309 C 378.371815718158 194.03734892709673 378.506233062332 194.00971258164031 378.77506775068 193.81859756097998 C 379.035230352304 193.63364754098833 379.16531165311596 193.49522990803328 379.42547425474 193.30414634146 C 379.694308943088 193.1066933226653 379.828726287262 192.977247967478 380.09756097561 192.84725609756 C 380.366395663958 192.717264227642 380.500813008132 192.78020325203187 380.76964769648 192.65418699187 C 381.012466124664 192.54036585365986 381.13387533875596 192.48987398374513 381.37669376694 192.24766260163 C 381.64552845528397 191.97950000000512 381.77994579945596 191.54493902438998 382.0487804878 191.37825203251998 C 382.308943089428 191.21156504065 382.439024390242 191.3226765960279 382.69918699187 191.21156504065 C 382.96802168021804 191.0967497667599 383.10243902439197 190.96969099027217 383.37127371274 190.81343495935 C 383.63143631436395 190.6622194455562 383.76151761517605 190.6953052112453 384.0216802168 190.44288617886 C 384.29051490514803 190.1820531787253 384.42493224932196 189.74855691057002 384.69376693767 189.53030487805 C 384.962601626018 189.31205284553 385.09701897019204 189.39322797547794 385.36585365854 189.31205284553 C 385.626016260164 189.23349626816193 385.756097560976 189.22651739304666 386.0162601626 189.13097560976001 C 386.285094850948 189.03224910036266 386.419512195122 188.96240530454583 386.68834688347 188.82638211382 C 386.948509485094 188.69474676795784 387.078590785906 188.61280887644645 387.33875338753 188.46182926829 C 387.60758807587797 188.30581700652647 387.742005420052 188.34670731706797 388.0108401084 188.05890243902002 C 388.279674796748 187.77109756097198 388.414092140922 187.40074864498897 388.68292682927 187.02280487805 C 388.934417344174 186.66924457994895 389.06016260162596 186.48192357723178 389.31165311653 186.23014227642 C 389.580487804878 185.96099674796378 389.714905149052 185.85504838065003 389.9837398374 185.72048780488 C 390.243902439024 185.59026789284604 390.373983739836 185.64226542716202 390.63414634146 185.56819105691 C 390.90298102980796 185.49164754098203 391.037398373982 185.50483073437093 391.30623306233 185.34394308943 C 391.566395663958 185.18824536851892 391.69647696477193 184.92275323204595 391.9566395664 184.77672764227998 C 392.225474254744 184.62583453285797 392.359891598916 184.77672764227998 392.62872628726 184.60164634146 C 392.89756097560803 184.42656504064 393.03197831978196 184.2154452219117 393.30081300813 183.80298780488 C 393.560975609758 183.4038354658157 393.691056910572 182.93733206717684 393.9512195122 182.57262195122001 C 394.22005420054404 182.19575483140483 394.35447154471603 182.50898247367596 394.62330623306 181.94904471545 C 394.883468834688 181.40716946554394 395.013550135502 180.43639810742488 395.27371273713 179.81808943088998 C 395.542547425474 179.1791704651489 395.676964769646 179.08082926829397 395.94579945799 178.80597560976 C 396.21463414633797 178.53112195122196 396.349051490512 178.68904878048716 396.61788617886 178.44382113821 C 396.860704607044 178.22232520325113 396.982113821136 177.69552845529 397.22493224932 177.63916666667 C 397.493766937668 177.58280487805 397.628184281842 177.63916666667 397.89701897019 177.58280487805 C 398.157181571814 177.52644308943002 398.287262872626 177.00599593495002 398.54742547425 176.88607723577002 C 398.816260162598 176.76615853659 398.95067750677197 176.80101752632794 399.21951219512 176.76615853659 C 399.479674796748 176.7324240303919 399.60975609756196 176.71459349593 399.86991869919 176.71459349593 C 400.13875338753394 176.71459349593 400.273170731706 176.71579268292206 400.54200542005 176.72058943089002 C 400.810840108398 176.72538617885806 400.945257452572 176.73857723576998 401.21409214092 176.73857723576998 C 401.474254742548 176.73857723576998 401.604336043362 176.5541186858601 401.86449864499 176.42319105691 C 402.133333333334 176.28789917366407 402.267750677506 176.07302845528 402.53658536585 176.07302845528 C 402.796747967478 176.07302845528 402.926829268292 176.07302845528 403.18699186992 176.13058943088998 C 403.45582655826803 176.18815040649997 403.590243902442 176.54430894309002 403.85907859079 176.54430894309002 C 404.127913279134 176.54430894309002 404.26233062330596 175.94951219512 404.53116531165 175.94951219512 C 404.77398373983397 175.94951219512 404.895392953926 175.9962804878 405.13821138211 175.9962804878 C 405.407046070458 175.9962804878 405.541463414632 175.82840217246616 405.81029810298 175.61973577236 C 406.070460704608 175.41780054645017 406.200542005422 175.1426952552285 406.46070460705 174.96977642276 C 406.729539295394 174.79109362921247 406.863956639566 174.81508130081517 407.13279132791 174.74073170731998 C 407.392953929538 174.66878048780717 407.523035230352 174.74073170731998 407.78319783198 174.60402439024 C 408.052032520328 174.46731707316002 408.186449864502 174.21332926829544 408.45528455285 174.02361788618 C 408.724119241194 173.83390650406744 408.85853658536604 173.85170165266663 409.12737127371 173.65546747967 C 409.387533875338 173.46556344128265 409.51761517615193 173.22434992669147 409.77777777778 173.05827235772 C 410.04661246612795 172.88665886978347 410.18102981030205 172.94336272157972 410.44986449865 172.8112398374 C 410.71002710027403 172.68337898174372 410.84010840108596 172.54018425962954 411.10027100271 172.40831300813 C 411.36910569105794 172.27204604824553 411.503523035232 172.34739430894155 411.77235772358 172.14089430894 C 412.04119241192404 171.93439430894153 412.17560975609604 171.68278861788073 412.44444444444 171.37581300813 C 412.68726287262797 171.09854471544475 412.80867208672197 170.95664227643104 413.05149051491 170.68028455285 C 413.3203252032539 170.37431707317904 413.454742547426 170.25079474876466 413.72357723577 169.92000000000002 C 413.98373983739805 169.59987604957664 414.113821138212 169.39811775290485 414.37398373984 169.05298780488 C 414.642818428184 168.69635352526086 414.777235772356 168.74088464613135 415.0460704607 168.16558943089 C 415.30623306232803 167.60885212580737 415.436314363142 167.0448017459738 415.69647696477 166.22290650407 C 415.96531165311796 165.3736147541058 416.099728997292 164.22985772358 416.36856368564 163.98762195122 C 416.63739837398396 163.74538617886 416.771815718156 163.87458383313023 417.0406504065 163.74538617886 C 417.300813008128 163.62035619085424 417.43089430894196 163.55139310942482 417.69105691057 163.35205284553 C 417.959891598918 163.14606790617282 418.09430894309196 162.97413594562212 418.36314363144 162.73207317073 C 418.623306233064 162.4978188724501 418.753387533876 162.445998267357 419.0135501355 162.1612601626 C 419.282384823848 161.86703078768096 419.41680216802206 161.58397154470995 419.68563685637 161.28465447154 C 419.95447154471805 160.98533739836995 420.088888888892 160.90185000000108 420.35772357724 160.66467479675 C 420.609214092144 160.4428012195171 420.734959349596 160.36331111111585 420.9864498645 160.13703252033 C 421.255284552848 159.89514850948783 421.38970189702195 159.73023683859634 421.65853658537 159.49426829268 C 421.91869918699393 159.26591163534437 422.048780487806 159.24326469412426 422.30894308943 158.9762195122 C 422.577777777778 158.70027282420824 422.71219512195205 158.43589337598962 422.9810298103 158.13678861789 C 423.24119241192403 157.84733240037764 423.371273712736 157.7959246301459 423.63143631436 157.50481707317 C 423.900271002708 157.2040059309579 424.03468834688204 157.018906504066 424.30352303523 156.65699186992 C 424.57235772357797 156.295077235774 424.706775067752 156.05212195122314 424.9756097561 155.69524390244 C 425.235772357724 155.34987804878313 425.36585365853597 155.22032653604958 425.62601626016 154.90138211382 C 425.89485094850795 154.57180621084558 426.029268292682 154.5410047980821 426.29810298103 154.07394308943 C 426.558265582654 153.62194788751412 426.68834688346607 152.88195121952003 426.94850948509 152.6037398374 C 427.21734417343805 152.32552845528 427.351761517612 152.426739837394 427.62059620596 152.32552845528 C 427.88943089430796 152.224317073166 428.02384823848206 152.28746341463363 428.29268292683 152.09768292683 C 428.5355013550141 151.92626829268562 428.656910569106 151.6133048780523 428.89972899729 151.42254065041 C 429.16856368563805 151.21133739837634 429.302981029812 151.2434135679057 429.57181571816 151.09276422764 C 429.83197831978396 150.94697454351368 429.96205962059605 150.89824037051653 430.22222222222 150.68144308943 C 430.49105691056803 150.45741923230452 430.625474254742 150.22667992802627 430.89430894309 149.99071138211 C 431.15447154471406 149.76235472477427 431.28455284552604 149.75016626682446 431.54471544715 149.5206300813 C 431.813550135498 149.2834426895885 431.947967479672 149.10810975609405 432.21680216802 148.82390243902 C 432.485636856368 148.53969512194604 432.62005420054203 148.54959136345187 432.88888888889 148.09959349593 C 433.149051490514 147.66411168865588 433.279132791326 146.71453252032 433.53929539295 146.61020325203 C 433.808130081298 146.50587398374 433.942547425472 146.61020325203 434.21138211382 146.50587398374 C 434.471544715448 146.40154471545 434.601626016262 146.0453665200656 434.86178861789 145.72760162602 C 435.130623306234 145.3992445688456 435.265040650406 145.21530894308762 435.53387533875 144.89056910569 C 435.802710027098 144.56582926828764 435.93712737127197 144.35971544715122 436.20596205962 144.10390243902 C 436.4487804878039 143.87284552845122 436.570189701896 143.8573292682889 436.81300813008 143.67339430894 C 437.08184281842796 143.4697520325169 437.216260162602 143.40164280953977 437.48509485095 143.13495934959 C 437.745257452574 142.8768785818998 437.87533875338596 142.64386278821735 438.13550135501 142.36148373984 C 438.40433604335794 142.06969205651333 438.53875338753204 141.96743482607488 438.80758807588 141.69953252033 C 439.06775067750806 141.44027222444686 439.19783197832203 141.22947087831596 439.45799457995 141.04357723577 C 439.726829268294 140.851487138476 439.86124661246606 140.9111869918668 440.13008130081 140.75457317073 C 440.398915989158 140.5979593495908 440.53333333333205 140.54084266293296 440.80216802168 140.26050813008 C 441.062330623308 139.98921664667296 441.192411924122 139.6456200853002 441.45257452575 139.37550813008 C 441.721409214094 139.0963924430242 441.855826558266 139.1906878581858 442.12466124661 138.88743902439 C 442.384823848238 138.5939724110338 442.51490514905197 138.25173230708612 442.77506775068 137.8837195122 C 443.043902439024 137.50343962415812 443.178319783196 137.44481707316484 443.44715447154 137.01670731707 C 443.71598915988795 136.58859756096882 443.850406504062 135.8930691057 444.11924119241 135.74317073171 C 444.36205962059404 135.59327235772 444.48346883468605 135.711873983737 444.72628726287 135.59327235772 C 444.995121951218 135.46196341462903 445.12953929539196 135.291226642673 445.39837398374 135.11839430894 C 445.658536585364 134.95113721178103 445.788617886176 134.92847061175644 446.0487804878 134.74304878049 C 446.31761517614797 134.55144622151244 446.45203252032195 134.41302072503967 446.72086720867 134.17583333333 C 446.98102981029797 133.9462971478037 447.11111111111194 133.811437758233 447.37127371274 133.5762398374 C 447.64010840108403 133.33320198587703 447.774525745256 133.24214634146202 448.0433604336 132.98024390244 C 448.31219512194804 132.71834146341405 448.44661246612196 132.51147187791923 448.71544715447 132.26672764228 C 448.9756097560979 132.02987838198322 449.105691056912 132.08458883113667 449.36585365854 131.7762601626 C 449.634688346884 131.45765387178466 449.76910569105604 131.06577528987822 450.0379403794 130.6993902439 C 450.298102981028 130.3448240703662 450.428184281842 130.42163101426075 450.68834688347 129.97388211382 C 450.957181571818 129.51120825003275 451.091598915992 128.89365447154552 451.36043360434 128.42333333333 C 451.629268292684 127.95301219512152 451.763685636856 127.94297100270242 452.0325203252 127.62227642276 C 452.284010840108 127.32227181571041 452.40975609756197 127.21030772357707 452.66124661247 126.87158536585 C 452.930081300814 126.50950284552908 453.064498644986 126.24981280820408 453.33333333333 125.87026422764 C 453.593495934958 125.50295914966809 453.723577235772 125.32858556577224 453.9837398374 125.00445121951 C 454.25257452574795 124.66951239504023 454.386991869922 124.53046174863235 454.65582655827 124.22258130080999 C 454.91598915989397 123.92463248034036 455.04607046070606 123.8385465813641 455.30623306233 123.48987804878001 C 455.57506775067804 123.12958723177209 455.70948509485197 122.79962601626004 455.9783197832 122.45018292683 C 456.24715447154796 122.10073983740003 456.38157181572205 122.04469258963718 456.65040650407 121.74266260163 C 456.91056910569404 121.45037551646519 457.040650406506 121.2816833266659 457.30081300813 120.9643902439 C 457.569647696478 120.63652072503791 457.70406504065204 120.37961948553824 457.972899729 120.12975609756 C 458.233062330624 119.88795281887423 458.363143631436 119.98056544049231 458.62330623306 119.73522357723999 C 458.892140921408 119.48170365187629 459.026558265582 119.20854065041196 459.29539295393 118.88260162602 C 459.564227642278 118.55666260162798 459.698644986452 118.44249593495563 459.9674796748 118.10552845528 C 460.21029810298404 117.8011707317036 460.33170731707605 117.57476829268684 460.57452574526 117.27928861788999 C 460.843360433604 116.95215040651087 460.977777777776 116.84053165400576 461.24661246612 116.54898373984 C 461.506775067748 116.26684059709376 461.636856368562 116.04109856057758 461.89701897019 115.84506097561001 C 462.16585365853797 115.64248880447758 462.300271002712 115.76990143942241 462.56910569106 115.55245934959001 C 462.829268292684 115.34203152072241 462.959349593496 115.06767326402287 463.21951219512 114.77538617886 C 463.48834688346795 114.47335619085484 463.622764227642 114.31825609756402 463.89159891599 114.06666666666999 C 464.160433604338 113.81507723577602 464.29485094851196 113.76242702918968 464.56368563686 113.51743902439 C 464.82384823848395 113.2803538584577 464.95392953929604 113.05233140077391 465.21409214092 112.86148373984 C 465.482926829268 112.6642744902059 465.61734417344195 112.72232300413674 465.88617886179 112.54729674797 C 466.14634146341393 112.37791650006874 466.2764227642259 112.10719512193998 466.53658536585 112.00046747967 C 466.805420054198 111.8937398374 466.93983739837205 112.00046747967 467.20867208672 111.8937398374 C 467.47750677506804 111.78701219513002 467.611924119242 111.68182520325723 467.88075880759 111.4368495935 C 468.12357723577395 111.21558130081722 468.24498644986596 110.91479674796743 468.48780487805 110.72813008130001 C 468.756639566398 110.52146341463141 468.89105691057205 110.67120211915103 469.15989159892 110.45351626016 C 469.42005420054403 110.24285252565501 469.550135501356 109.95968712514575 469.81029810298 109.65725609756001 C 470.079132791328 109.34474403571775 470.21355013550203 109.16309669466065 470.48238482385 108.91615853658999 C 470.742547425474 108.67718612555666 470.872628726286 108.65125616420401 471.13279132791 108.44247967480001 C 471.401626016258 108.22674396908002 471.536043360432 108.04962601625999 471.80487804878 107.85487804878 C 472.07371273712795 107.6601300813 472.208130081302 107.57136665334146 472.47696476965 107.4687398374 C 472.73712737127397 107.36942356390945 472.86720867208606 107.39838098093675 473.12737127371 107.3500203252 C 473.39620596205805 107.30004764760476 473.530623306232 107.3500203252 473.79945799458 107.22290650407001 C 474.059620596208 107.09579268294002 474.189701897022 106.29988637879117 474.44986449865 105.88941056911 C 474.71869918699406 105.46525223244716 474.85311653116594 105.37759756097424 475.12195121951 105.13632113821001 C 475.39078590785795 104.89504471544227 475.52520325203204 104.88767886178489 475.79403794038 104.68302845528001 C 476.0368563685641 104.49818292682488 476.158265582656 104.33923170731337 476.40108401084 104.16258130080999 C 476.66991869918803 103.96700406503736 476.80433604336196 104.11055624416623 477.07317073171 103.75245934959 C 477.33333333333394 103.40591396774623 477.46341463414603 102.9548820471815 477.72357723577 102.40097560976 C 477.992411924118 101.8286056244175 478.126829268292 101.43551999200403 478.39566395664 100.93676829268 C 478.65582655826404 100.45410535785604 478.785907859076 100.33597560975352 479.0460704607 99.94743902439001 C 479.314905149048 99.5459512195095 479.449322493222 99.37926422764004 479.71815718157 98.96170731707 C 479.986991869918 98.54415040650004 480.121409214092 98.41301046247919 480.39024390244 97.85965447154001 C 480.650406504064 97.3241486738632 480.780487804876 96.7911002265738 481.0406504065 96.23955284553 C 481.30948509484807 95.66962055177781 481.443902439022 95.44525463147806 481.71273712737 95.05595528455001 C 481.97289972899796 94.67921398107006 482.102981029812 94.6264104358256 482.36314363144 94.32445121951 C 482.63197831978397 94.01242669598962 482.76639566395596 93.80760162601392 483.0352303523 93.52099593496001 C 483.30406504064797 93.23439024390191 483.43848238482195 93.52099593496001 483.70731707317 92.89142276422999 C 483.95880758807397 92.26184959349996 484.084552845526 90.1565409213975 484.33604336043 86.57410569106 C 484.60487804877795 82.7446059620455 484.73929539295204 78.96345954950121 485.0081300813 74.36158536585 C 485.26829268292806 69.90815873649319 485.39837398374203 66.67825669734798 485.65853658537 63.93585365854 C 485.927371273714 61.10203718515597 486.061788617886 61.500933959744955 486.33062330623 60.42103658536999 C 486.59078590785805 59.37597461014896 486.720867208672 59.14409902705456 486.9810298103 58.623455284550005 C 487.249864498648 58.08545675063056 487.384281842822 58.48291056911125 487.65311653117 57.77443089431 C 487.92195121951397 57.06595121951924 488.056368563686 55.99738517925444 488.32520325203 55.08105691057 C 488.585365853658 54.19428761827843 488.715447154472 54.13033753166317 488.9756097561 53.26668699186999 C 489.24444444444396 52.37424810076716 489.378861788616 51.54841323469537 489.64769647696 50.690833333330005 C 489.907859078588 49.86091729973536 490.03794037940196 49.90121784619427 490.29810298103 49.047947154469995 C 490.566937669378 48.16623410635827 490.70135501355196 47.458784552854176 490.9701897019 46.35337398374 C 491.239024390244 45.24796341464218 491.37344173441596 44.718048780478874 491.64227642276 43.52089430894 C 491.88509485094403 42.43959349592687 492.006504065036 41.942276422761985 492.24932249322 40.657235772359996 C 492.518157181568 39.23451219512199 492.65257452574195 38.28698567239805 492.92140921409 36.75148373984001 C 493.181571815718 35.265514127682046 493.31165311653206 33.61800813007994 493.57181571816 33.10355691056998 C 493.84065040650404 32.58910569106001 493.975067750676 33.06177409036363 494.24390243902 32.58910569106001 C 494.50406504064796 32.131684659467645 494.63414634146204 31.6323117419681 494.89430894309 30.77833333333001 C 495.163143631438 29.895888977740103 495.29756097561204 29.06445528456007 495.56639566396 28.248048780490024 C 495.835230352304 27.431642276432065 495.96964769647604 27.45027882180079 496.23848238482 26.696300813009998 C 496.498644986448 25.966644675456788 496.628726287262 25.373597560973742 496.88888888889 24.538963414630018 C 497.157723577238 23.676508130077746 497.292140921412 23.316763827804742 497.56097560976 22.453577235770013 C 497.821138211384 21.618235372520733 497.95121951219596 20.85527722243823 498.21138211382 20.292642276419997 C 498.480216802168 19.71125283219423 498.614634146342 19.865012195118045 498.88346883469 19.593516260160015 C 499.152303523038 19.322020325202043 499.286720867212 19.33009756098051 499.55555555556 18.935162601629997 C 499.798373983744 18.578447154476514 499.91978319783595 17.71918699187006 500.16260162602 17.714390243900027 C 500.43143631436396 17.709593495929994 500.56585365853596 17.709593495929994 500.83468834688 17.709593495929994 C 501.094850948508 17.709593495929994 501.224932249322 17.861556044245123 501.48509485095 18.02857723577 C 501.75392953929804 18.201165800345127 501.88834688347197 18.463882113819977 502.15718157182 18.558617886180002 C 502.41734417344395 18.653353658540027 502.54742547425604 18.59272590964007 502.80758807588 18.653353658540027 C 503.076422764228 18.716002332404074 503.21084010840195 18.653353658540027 503.47967479675 18.866808943090007 C 503.74850948509794 19.080264227639987 503.88292682927204 19.822635679055278 504.15176151762 20.29384146340999 C 504.411924119244 20.749847061167277 504.542005420056 20.85315407170247 504.80216802168 21.184837398370007 C 505.071002710028 21.527576835930475 505.205420054202 21.589136412095332 505.47425474255 21.979898373980006 C 505.734417344174 22.358055111283328 505.864498644986 22.68509896041596 506.12466124661 23.10713414634 C 506.39349593495797 23.54323717179995 506.527913279132 23.752536585366027 506.79674796748 24.12524390243999 C 507.065582655828 24.497951219514032 507.200000000002 24.170215447154916 507.46883468835 24.970670731710015 C 507.711653116534 25.69366260162692 507.83306233062603 27.01077235772157 508.07588075881 27.933861788619993 C 508.344715447154 28.95585365853356 508.479132791326 29.83337398373999 508.74796747967 29.83337398373999 C 509.00813008129796 29.83337398373999 509.13821138211205 28.722926829270023 509.39837398374 28.722926829270023 C 509.66720867208807 28.722926829270023 509.801626016262 28.8155237238399 510.07046070461 28.91839430893998 C 510.330623306234 29.01794648806788 510.46070460704595 29.102774223647284 510.72086720867 29.228983739839975 C 510.98970189701794 29.35940023990728 511.124119241192 29.365211382109944 511.39295392954 29.559959349589974 C 511.66178861788796 29.75470731706996 511.79620596206195 30.025990936960866 512.06504065041 30.20272357724002 C 512.3252032520339 30.373755164604873 512.455284552846 30.42936991869999 512.71544715447 30.42936991869999 C 512.9842818428181 30.42936991869999 513.118699186992 30.42440803678461 513.38753387534 30.271077235770008 C 513.6476964769639 30.122692589628613 513.7777777777759 29.681077235770033 514.0379403794 29.675081300810007 C 514.306775067748 29.66908536584998 514.441192411922 29.675081300810007 514.71002710027 29.66908536584998 C 514.9788617886181 29.663089430889954 515.1132791327921 29.578107046069157 515.38211382114 29.23857723576998 C 515.633604336044 28.920952574525177 515.7593495934959 28.24445121951004 516.0108401084 28.026199186990027 C 516.2796747967479 27.807947154470014 516.414092140922 28.026199186990027 516.68292682927 27.807947154470014 C 516.943089430894 27.58969512195 517.073170731706 27.196892576303604 517.33333333333 26.86898373984002 C 517.6021680216779 26.530144608823605 517.7365853658521 26.33609256297293 518.0054200542 26.141077235770013 C 518.2655826558281 25.952352725572926 518.395663956642 26.141077235770013 518.65582655827 25.90963414634001 C 518.924661246614 25.67819105691001 519.0590785907859 25.12488617886086 519.32791327913 24.688861788619988 C 519.596747967478 24.252837398372847 520 23.72951219511998 520 23.72951219511998" class="highcharts-graph" data-z-index="1" stroke="#4f81bd" stroke-width="2" stroke-linejoin="round" stroke-linecap="round"></path></g><g class="highcharts-markers highcharts-series-0 highcharts-spline-series" data-z-index="4" opacity="1" transform="translate(25,40) scale(1 1)" clip-path="none"></g></g><text x="24" text-anchor="start" class="highcharts-title" data-z-index="4" style="color: rgb(51, 51, 51); font-size: 1em; fill: rgb(51, 51, 51); font-family: Helvetica;" y="20">US Money Supply M2<tspan style="font-size: 10px;"> - USD Billion</tspan></text><text x="590" text-anchor="end" class="highcharts-subtitle" data-z-index="4" style="color: rgb(51, 51, 51); fill: rgb(51, 51, 51); font-size: 0.8em; font-family: Helvetica;" y="401">Source: tradingeconomics.com | Federal Reserve</text><text x="10" text-anchor="start" class="highcharts-caption" data-z-index="4" style="color: rgb(102, 102, 102); fill: rgb(102, 102, 102);" y="407"></text><g class="highcharts-axis-labels highcharts-xaxis-labels" data-z-index="7"><text x="32.913279132791" style="color: rgb(51, 51, 51); cursor: default; font-size: 1em; font-family: Helvetica; fill: rgb(51, 51, 51);" text-anchor="middle" transform="translate(0,0)" y="350" opacity="1">1960</text><text x="112.11111111111" style="color: rgb(51, 51, 51); cursor: default; font-size: 1em; font-family: Helvetica; fill: rgb(51, 51, 51);" text-anchor="middle" transform="translate(0,0)" y="350" opacity="1">1970</text><text x="191.28726287263" style="color: rgb(51, 51, 51); cursor: default; font-size: 1em; font-family: Helvetica; fill: rgb(51, 51, 51);" text-anchor="middle" transform="translate(0,0)" y="350" opacity="1">1980</text><text x="270.48509485095" style="color: rgb(51, 51, 51); cursor: default; font-size: 1em; font-family: Helvetica; fill: rgb(51, 51, 51);" text-anchor="middle" transform="translate(0,0)" y="350" opacity="1">1990</text><text x="349.66124661247" style="color: rgb(51, 51, 51); cursor: default; font-size: 1em; font-family: Helvetica; fill: rgb(51, 51, 51);" text-anchor="middle" transform="translate(0,0)" y="350" opacity="1">2000</text><text x="428.85907859079" style="color: rgb(51, 51, 51); cursor: default; font-size: 1em; font-family: Helvetica; fill: rgb(51, 51, 51);" text-anchor="middle" transform="translate(0,0)" y="350" opacity="1">2010</text><text x="508.0352303523" style="color: rgb(51, 51, 51); cursor: default; font-size: 1em; font-family: Helvetica; fill: rgb(51, 51, 51);" text-anchor="middle" transform="translate(0,0)" y="350" opacity="1">2020</text></g><g class="highcharts-axis-labels highcharts-yaxis-labels" data-z-index="7"><text x="0" style="color: rgb(51, 51, 51); cursor: default; font-size: 1em; font-family: Helvetica; fill: rgb(51, 51, 51);" text-anchor="start" transform="translate(0,0)" visibility="hidden"><tspan class="yLabels_">-1.4K</tspan></text><text x="550" style="color: rgb(51, 51, 51); cursor: default; font-size: 1em; font-family: Helvetica; fill: rgb(51, 51, 51);" text-anchor="start" transform="translate(0,0)" y="321" opacity="1"><tspan class="yLabels_">0</tspan></text><text x="550" style="color: rgb(51, 51, 51); cursor: default; font-size: 1em; font-family: Helvetica; fill: rgb(51, 51, 51);" text-anchor="start" transform="translate(0,0)" y="270" opacity="1"><tspan class="yLabels_">4.3K</tspan></text><text x="550" style="color: rgb(51, 51, 51); cursor: default; font-size: 1em; font-family: Helvetica; fill: rgb(51, 51, 51);" text-anchor="start" transform="translate(0,0)" y="218" opacity="1"><tspan class="yLabels_">8.6K</tspan></text><text x="550" style="color: rgb(51, 51, 51); cursor: default; font-size: 1em; font-family: Helvetica; fill: rgb(51, 51, 51);" text-anchor="start" transform="translate(0,0)" y="167" opacity="1"><tspan class="yLabels_">12.9K</tspan></text><text x="550" style="color: rgb(51, 51, 51); cursor: default; font-size: 1em; font-family: Helvetica; fill: rgb(51, 51, 51);" text-anchor="start" transform="translate(0,0)" y="115" opacity="1"><tspan class="yLabels_">17.2K</tspan></text><text x="550" style="color: rgb(51, 51, 51); cursor: default; font-size: 1em; font-family: Helvetica; fill: rgb(51, 51, 51);" text-anchor="start" transform="translate(0,0)" y="63" opacity="1"><tspan class="yLabels_">21.5K</tspan></text><text x="0" style="color: rgb(51, 51, 51); cursor: default; font-size: 1em; font-family: Helvetica; fill: rgb(51, 51, 51);" text-anchor="start" transform="translate(0,0)" visibility="hidden"><tspan class="yLabels_">23.2K</tspan></text></g><g class="highcharts-axis-labels highcharts-yaxis-labels" data-z-index="7"></g><g class="highcharts-control-points" data-z-index="99" clip-path="url(#highcharts-ygx89fu-1601-)"></g></svg>